<?xml version="1.0" encoding="UTF-8" standalone="no"?>
<!-- Created with Inkscape (http://www.inkscape.org/) -->

<svg
   xmlns:dc="http://purl.org/dc/elements/1.1/"
   xmlns:cc="http://creativecommons.org/ns#"
   xmlns:rdf="http://www.w3.org/1999/02/22-rdf-syntax-ns#"
   xmlns:svg="http://www.w3.org/2000/svg"
   xmlns="http://www.w3.org/2000/svg"
   xmlns:sodipodi="http://sodipodi.sourceforge.net/DTD/sodipodi-0.dtd"
   xmlns:inkscape="http://www.inkscape.org/namespaces/inkscape"
   version="1.1"
   id="svg2"
   xml:space="preserve"
   width="512"
   height="512"
   viewBox="0 0 511.99999 512"
   sodipodi:docname="maskable.svg"
   inkscape:version="0.92.5 (2060ec1f9f, 2020-04-08)"
   inkscape:export-filename="/home/dredd/work/web/PowerCoat/Calculator/maskable.png"
   inkscape:export-xdpi="373.33701"
   inkscape:export-ydpi="373.33701"><metadata
     id="metadata8"><rdf:RDF><cc:Work
         rdf:about=""><dc:format>image/svg+xml</dc:format><dc:type
           rdf:resource="http://purl.org/dc/dcmitype/StillImage" /><dc:title></dc:title></cc:Work></rdf:RDF></metadata><defs
     id="defs6" /><sodipodi:namedview
     pagecolor="#ffffff"
     bordercolor="#666666"
     borderopacity="1"
     objecttolerance="10"
     gridtolerance="10"
     guidetolerance="10"
     inkscape:pageopacity="0"
     inkscape:pageshadow="2"
     inkscape:window-width="1508"
     inkscape:window-height="1137"
     id="namedview4"
     showgrid="false"
     fit-margin-top="0"
     fit-margin-left="0"
     fit-margin-right="0"
     fit-margin-bottom="0"
     inkscape:zoom="0.57196386"
     inkscape:cx="200.46535"
     inkscape:cy="-1.4150763"
     inkscape:window-x="92"
     inkscape:window-y="0"
     inkscape:window-maximized="1"
     inkscape:current-layer="g10"
     inkscape:snap-page="true" /><g
     id="g10"
     inkscape:groupmode="layer"
     inkscape:label="ink_ext_XXXXXX"
     transform="matrix(1.3333333,0,0,-1.3333333,-354.57675,1077.9696)"><path
   style="fill:#ffffff;fill-opacity:1;stroke:none;stroke-width:8.44316769;stroke-linejoin:round;stroke-miterlimit:4;stroke-dasharray:none;stroke-opacity:1"
   d="m 321.58734,731.79008 135.52783,22.9061 136.80036,-22.9061 -19.72472,-198.51964 -116.43936,-57.26529 -116.43943,56.629 z"
   id="path824"
   inkscape:connector-curvature="0"
   sodipodi:nodetypes="ccccccc" /><flowRoot
   xml:space="preserve"
   id="flowRoot981"
   style="font-weight:bold;font-size:13.33333302px;line-height:150%;font-family:Arial;-inkscape-font-specification:'Arial Bold';text-align:end;writing-mode:lr-tb;text-anchor:end;fill:#000000;stroke-width:1.00157475;stroke-linejoin:round"
   transform="matrix(0.75000002,0,0,-0.75000002,0,606.17002)"><flowRegion
     id="flowRegion983"><rect
       id="rect985"
       width="213.07422"
       height="156.25443"
       x="-553.99298"
       y="-630.02429" /></flowRegion><flowPara
     id="flowPara987" /></flowRoot>
<g
   id="g1159"
   transform="matrix(3.1055328,0,0,3.1055328,121.79079,-357.15079)"><path
     inkscape:connector-curvature="0"
     id="path1145"
     style="fill:#c21b32;fill-opacity:1;fill-rule:nonzero;stroke:none;stroke-width:0.1"
     d="m 147.017,344.507 -1.276,-7.186 -0.686,-35.164 c 0,-1.612 -0.27,-3.263 -0.827,-5.047 -0.555,-1.778 -1.438,-3.547 -2.633,-5.277 -2.372,-3.407 -5.95,-6.584 -10.637,-9.455 -1.291,-0.79 -2.718,-1.584 -4.273,-2.381 -0.206,-0.104 -0.407,-0.198 -0.588,-0.285 l -0.604,-0.289 c -1.573,-0.761 -2.96,-1.39 -4.236,-1.918 -5.242,-2.191 -9.924,-3.551 -12.248,-4.165 l -0.772,-0.208 -0.769,0.208 c -2.425,0.646 -7.287,2.068 -12.6352,4.33 -1.3543,0.581 -2.5922,1.148 -3.7367,1.711 l -0.9395,0.447 -0.3183,0.155 c -1.3953,0.711 -2.7469,1.463 -4.1317,2.302 -4.9019,2.964 -8.6003,6.27 -10.9746,9.803 -1.1281,1.652 -1.9781,3.41 -2.5195,5.226 -0.5254,1.763 -0.7824,3.382 -0.7824,4.894 l -0.6328,34.352 -1.3516,7.964 -0.5043,2.976 2.9762,0.488 35.8674,5.886 0.488,0.081 0.485,-0.081 35.79,-5.88 3.002,-0.491 z m -38.774,18.378 -49.2227,-8.076 2.5395,-14.696 0.7191,-39.628 c 0,-1.961 0.3262,-4.004 0.9832,-6.238 0.7047,-2.326 1.7832,-4.565 3.2051,-6.638 2.9808,-4.447 7.566,-8.556 13.6234,-12.219 1.6535,-0.991 3.2778,-1.899 5.0449,-2.803 0.5094,-0.25 0.995,-0.479 1.4625,-0.697 1.3766,-0.675 2.845,-1.346 4.5004,-2.066 7.2938,-3.071 13.7276,-4.833 16.1606,-5.441 l 0.944,-0.24 0.948,0.234 c 2.347,0.592 8.572,2.275 15.687,5.251 1.569,0.647 3.235,1.404 5.127,2.319 0.206,0.106 0.418,0.199 0.624,0.301 0.237,0.112 0.48,0.222 0.773,0.373 1.895,0.964 3.642,1.944 5.191,2.898 5.786,3.534 10.227,7.491 13.195,11.759 1.505,2.169 2.636,4.425 3.356,6.723 0.699,2.273 1.041,4.373 1.041,6.358 l 0.787,40.423 2.527,14.023 -49.216,8.08" /><path
     inkscape:connector-curvature="0"
     id="path1147"
     style="fill:#c21b32;fill-opacity:1;fill-rule:nonzero;stroke:none;stroke-width:0.1"
     d="m 85.6113,318.171 -0.6664,2.983 11.1465,-6.89 c -0.9851,6.627 -0.5754,24.408 -0.5754,24.408 l 1.9707,-1.386 c 2.0082,-1.413 4.8493,-1.191 6.5093,0.509 l 11.443,11.725 -7.166,1.177 -35.6226,-5.848 1.3547,-7.971 0.4601,-24.856 6.7926,0.683 c 2.9426,0.296 4.9465,2.812 4.3535,5.466" /><path
     inkscape:connector-curvature="0"
     id="path1149"
     style="fill:#c21b32;fill-opacity:1;fill-rule:nonzero;stroke:none;stroke-width:0.1"
     d="m 104.072,303.17 c 0.54,11.167 4.1,19.689 4.1,19.689 -7.244,-14.197 -7.309,-27.076 -5.815,-35.966 -5.2078,-0.761 -8.6367,-3.026 -8.6367,-3.026 l 1.3621,4.125 c 0.3508,1.061 -0.1422,2.223 -1.2023,2.795 -6.2707,3.378 -14.0918,4.669 -17.6598,5.107 0.3348,-0.678 0.7227,-1.342 1.1649,-1.988 2.1265,-3.166 5.4875,-6.154 9.9816,-8.87 1.3219,-0.797 2.6059,-1.513 3.9328,-2.189 l 0.2531,-0.121 c 0.2875,-0.14 0.5938,-0.286 0.9086,-0.435 1.1485,-0.564 2.3379,-1.11 3.6422,-1.669 5.1035,-2.156 9.7645,-3.526 12.1275,-4.158 -1.848,4.187 -5.308,13.986 -4.159,26.706" /><path
     inkscape:connector-curvature="0"
     id="path1151"
     style="fill:#c21b32;fill-opacity:1;fill-rule:nonzero;stroke:none;stroke-width:0.1"
     d="m 123.717,338.141 5.261,0.899 c -6.294,-8.433 -12.714,-23.174 -12.714,-23.174 5.102,5.303 19.427,11.026 19.427,11.026 l -1.007,-4.73 c -0.322,-1.516 0.867,-2.986 2.563,-3.138 1.571,-0.14 3.275,-0.413 4.907,-0.731 l 0.377,19.325 1.285,7.241 -27.14,4.458 1.29,-7.458 c 0.43,-2.487 3.047,-4.179 5.751,-3.718" /><path
     inkscape:connector-curvature="0"
     id="path1153"
     style="fill:#c21b32;fill-opacity:1;fill-rule:nonzero;stroke:none;stroke-width:0.1"
     d="m 139.865,304.419 1.986,-1.692 0.149,7.623 c -0.87,-0.817 -1.667,-1.597 -2.329,-2.258 -1.052,-1.049 -0.964,-2.687 0.194,-3.673" /><path
     inkscape:connector-curvature="0"
     id="path1155"
     style="fill:#c21b32;fill-opacity:1;fill-rule:nonzero;stroke:none;stroke-width:0.1"
     d="m 78.5855,302.459 -4.0503,5.804 0.1109,-5.996 c 0,-1.255 0.2117,-2.573 0.6465,-4.033 0.1433,-0.48 0.316,-0.954 0.5109,-1.424 l 1.3406,0.632 c 2.0036,0.945 2.668,3.259 1.4414,5.017" /><path
     inkscape:connector-curvature="0"
     id="path1157"
     style="fill:#c21b32;fill-opacity:1;fill-rule:nonzero;stroke:none;stroke-width:0.1"
     d="m 116.122,290.765 0.763,-6.559 c -2.967,1.629 -5.842,2.456 -8.499,2.773 1.006,-3.116 2.397,-6.221 4.276,-9.214 2.125,0.684 4.662,1.581 7.355,2.71 1.226,0.505 2.558,1.108 4.074,1.843 0.203,0.102 0.417,0.2 0.63,0.302 0.18,0.084 0.351,0.166 0.527,0.254 1.454,0.744 2.811,1.502 4.031,2.249 4.306,2.635 7.56,5.51 9.679,8.549 1.003,1.45 1.742,2.933 2.199,4.397 0.316,1.011 0.518,1.958 0.615,2.87 -13.193,-2.4 -21.017,-5.902 -24.19,-7.561 -1.011,-0.529 -1.584,-1.547 -1.46,-2.613" /></g></g></svg>