<?xml version="1.0" encoding="UTF-8" standalone="no"?>
<!-- Created with Inkscape (http://www.inkscape.org/) -->

<svg
   xmlns:dc="http://purl.org/dc/elements/1.1/"
   xmlns:cc="http://creativecommons.org/ns#"
   xmlns:rdf="http://www.w3.org/1999/02/22-rdf-syntax-ns#"
   xmlns:svg="http://www.w3.org/2000/svg"
   xmlns="http://www.w3.org/2000/svg"
   xmlns:sodipodi="http://sodipodi.sourceforge.net/DTD/sodipodi-0.dtd"
   xmlns:inkscape="http://www.inkscape.org/namespaces/inkscape"
   version="1.1"
   id="svg2"
   xml:space="preserve"
   width="683.58197"
   height="204.71948"
   viewBox="0 0 683.58198 204.71948"
   sodipodi:docname="PowerCALC Logo.svg"
   inkscape:version="0.92.5 (2060ec1f9f, 2020-04-08)"><metadata
     id="metadata8"><rdf:RDF><cc:Work
         rdf:about=""><dc:format>image/svg+xml</dc:format><dc:type
           rdf:resource="http://purl.org/dc/dcmitype/StillImage" /><dc:title></dc:title></cc:Work></rdf:RDF></metadata><defs
     id="defs6" /><sodipodi:namedview
     pagecolor="#ffffff"
     bordercolor="#666666"
     borderopacity="1"
     objecttolerance="10"
     gridtolerance="10"
     guidetolerance="10"
     inkscape:pageopacity="0"
     inkscape:pageshadow="2"
     inkscape:window-width="1108"
     inkscape:window-height="1537"
     id="namedview4"
     showgrid="false"
     fit-margin-top="0"
     fit-margin-left="0"
     fit-margin-right="0"
     fit-margin-bottom="0"
     inkscape:zoom="0.57196385"
     inkscape:cx="298.17383"
     inkscape:cy="214.48024"
     inkscape:window-x="92"
     inkscape:window-y="0"
     inkscape:window-maximized="1"
     inkscape:current-layer="g10" /><g
     id="g10"
     inkscape:groupmode="layer"
     inkscape:label="ink_ext_XXXXXX"
     transform="matrix(1.3333333,0,0,-1.3333333,-290.43071,697.62564)"><flowRoot
   xml:space="preserve"
   id="flowRoot981"
   style="font-weight:bold;font-size:13.33333302px;line-height:150%;font-family:Arial;-inkscape-font-specification:'Arial Bold';text-align:end;writing-mode:lr-tb;text-anchor:end;fill:#000000;stroke-width:1.00157475;stroke-linejoin:round"
   transform="matrix(0.75000002,0,0,-0.75000002,0,606.17002)"><flowRegion
     id="flowRegion983"><rect
       id="rect985"
       width="213.07422"
       height="156.25443"
       x="-553.99298"
       y="-630.02429" /></flowRegion><flowPara
     id="flowPara987" /></flowRoot><g
   aria-label="P       WERCOAT CANADA"
   transform="scale(1,-1)"
   style="font-style:normal;font-variant:normal;font-weight:bold;font-stretch:normal;font-size:72px;line-height:64.99999762%;font-family:'RBNo3.1';-inkscape-font-specification:'RBNo3.1 weight=453';text-align:end;writing-mode:lr-tb;text-anchor:end;fill:#000000;stroke:none;stroke-width:2.17499995;stroke-linejoin:round;stroke-miterlimit:4;stroke-dasharray:none;stroke-opacity:1"
   id="text999"><path
     d="m 230.85504,-469.98161 h 16.128 c 9.72,0 14.688,-5.616 14.688,-13.104 v -9.576 c 0,-7.488 -4.968,-13.032 -14.688,-13.032 h -29.16 v 50.4 h 13.032 z m 12.6,-10.656 h -12.6 v -14.4 h 12.6 c 3.744,0 5.184,1.8 5.184,5.04 v 4.32 c 0,3.168 -1.44,5.04 -5.184,5.04 z"
     style="font-size:72px;line-height:64.99999762%;text-align:end;text-anchor:end;fill:#000000;stroke:none;stroke-width:2.17499995;stroke-miterlimit:4;stroke-dasharray:none;stroke-opacity:1"
     id="path868" /><path
     d="m 424.03007,-467.96561 h -1.008 l -5.328,-37.728 h -17.568 l -5.328,37.728 h -1.008 l -5.976,-37.728 h -14.688 c 0,0 8.856,44.928 9.648,48.816 0.288,1.44 1.008,1.8 1.944,1.8 h 18.72 c 0.72,0 1.728,-0.288 1.944,-1.584 l 3.312,-27.504 h 0.432 l 3.312,27.504 c 0.216,1.296 1.224,1.584 1.944,1.584 h 18.72 c 0.936,0 1.656,-0.36 1.944,-1.8 0.792,-3.888 9.648,-48.816 9.648,-48.816 h -14.688 z"
     style="font-size:72px;line-height:64.99999762%;text-align:end;text-anchor:end;fill:#000000;stroke:none;stroke-width:2.17499995;stroke-miterlimit:4;stroke-dasharray:none;stroke-opacity:1"
     id="path870" /><path
     d="m 449.44601,-455.29361 h 38.16 v -11.304 h -25.128 v -8.712 h 21.384 v -10.944 h -21.384 v -8.784 h 25.2 v -10.656 h -38.232 z"
     style="font-size:72px;line-height:64.99999762%;text-align:end;text-anchor:end;fill:#000000;stroke:none;stroke-width:2.17499995;stroke-miterlimit:4;stroke-dasharray:none;stroke-opacity:1"
     id="path872" /><path
     d="m 508.34195,-471.42161 h 10.584 l 7.488,16.128 h 13.68 l -8.208,-17.856 c 4.824,-2.088 7.272,-6.336 7.272,-11.736 v -7.416 c 0,-7.488 -4.968,-13.392 -14.688,-13.392 h -29.16 v 50.4 h 13.032 z m 12.816,-10.296 h -12.816 v -13.32 h 12.816 c 3.744,0 5.184,1.8 5.184,5.04 v 3.024 c 0,3.24 -1.44,5.256 -5.184,5.256 z"
     style="font-size:72px;line-height:64.99999762%;text-align:end;text-anchor:end;fill:#000000;stroke:none;stroke-width:2.17499995;stroke-miterlimit:4;stroke-dasharray:none;stroke-opacity:1"
     id="path874" /><path
     d="m 585.45392,-505.33361 c 0,0 -12.528,-0.792 -24.984,-0.792 -9.72,0 -14.544,6.192 -14.544,13.68 v 23.544 c 0,7.488 4.824,14.04 14.544,14.04 11.736,0 24.984,-1.008 24.984,-1.008 l -0.144,-10.368 h -20.664 c -3.744,0 -5.328,-2.016 -5.328,-5.184 v -18.504 c 0,-3.24 1.584,-4.896 5.328,-4.896 h 20.664 z"
     style="line-height:64.99999762%;text-align:end;text-anchor:end;fill:#c21b32;fill-opacity:1"
     id="path876" /><path
     d="m 604.60577,-455.22161 h 16.272 c 9.72,0 14.688,-5.976 14.688,-13.464 v -23.616 c 0,-7.488 -4.968,-13.464 -14.688,-13.464 h -16.272 c -9.648,0 -14.688,5.976 -14.688,13.464 v 23.616 c 0,7.488 5.04,13.464 14.688,13.464 z m 3.6,-39.816 h 9.072 c 3.744,0 5.184,1.512 5.184,4.68 v 19.224 c 0,3.168 -1.44,5.04 -5.184,5.04 h -9.072 c -3.744,0 -5.184,-1.872 -5.184,-5.04 v -19.224 c 0,-3.168 1.44,-4.68 5.184,-4.68 z"
     style="line-height:64.99999762%;text-align:end;text-anchor:end;fill:#c21b32;fill-opacity:1"
     id="path878" /><path
     d="m 674.94967,-455.29361 h 14.184 c 0,0 -14.4,-45.36 -15.336,-48.384 -0.576,-1.944 -0.792,-2.016 -3.384,-2.016 h -15.552 c -2.592,0 -2.808,0.072 -3.384,2.016 -1.008,3.024 -15.408,48.384 -15.408,48.384 h 14.256 l 3.312,-11.448 h 18 z m -13.392,-40.32 h 2.088 l 5.112,18 h -12.312 z"
     style="line-height:64.99999762%;text-align:end;text-anchor:end;fill:#c21b32;fill-opacity:1"
     id="path880" /><path
     d="m 729.23762,-505.69361 h -44.64 v 10.8 h 15.84 v 39.6 h 13.032 v -39.6 h 15.768 z"
     style="line-height:64.99999762%;text-align:end;text-anchor:end;fill:#c21b32;fill-opacity:1"
     id="path882" /><path
     d="m 552.76575,-441.85361 c 0,0 -8.352,-0.528 -16.656,-0.528 -6.48,0 -9.696,4.128 -9.696,9.12 v 15.696 c 0,4.992 3.216,9.36 9.696,9.36 7.824,0 16.656,-0.672 16.656,-0.672 l -0.096,-6.912 h -13.776 c -2.496,0 -3.552,-1.344 -3.552,-3.456 v -12.336 c 0,-2.16 1.056,-3.264 3.552,-3.264 h 13.776 z"
     style="font-size:48px;line-height:64.99999762%;text-align:end;text-anchor:end;fill:#000000;stroke:none;stroke-width:2.17499995;stroke-miterlimit:4;stroke-dasharray:none;stroke-opacity:1"
     id="path884" /><path
     d="m 580.02963,-408.49361 h 9.456 c 0,0 -9.6,-30.24 -10.224,-32.256 -0.384,-1.296 -0.528,-1.344 -2.256,-1.344 h -10.368 c -1.728,0 -1.872,0.048 -2.256,1.344 -0.672,2.016 -10.272,32.256 -10.272,32.256 h 9.504 l 2.208,-7.632 h 12 z m -8.928,-26.88 h 1.392 l 3.408,12 h -8.208 z"
     style="font-size:48px;line-height:64.99999762%;text-align:end;text-anchor:end;fill:#000000;stroke:none;stroke-width:2.17499995;stroke-miterlimit:4;stroke-dasharray:none;stroke-opacity:1"
     id="path886" /><path
     d="m 623.37362,-442.09361 h -8.688 v 18.912 h -0.24 c -1.584,-2.448 -12.384,-17.52 -12.672,-18 -0.528,-0.72 -0.48,-0.912 -2.352,-0.912 h -6.96 v 33.6 h 8.688 v -18.768 h 0.288 l 12.144,17.376 c 0.816,1.152 1.248,1.392 2.688,1.392 h 7.104 z"
     style="font-size:48px;line-height:64.99999762%;text-align:end;text-anchor:end;fill:#000000;stroke:none;stroke-width:2.17499995;stroke-miterlimit:4;stroke-dasharray:none;stroke-opacity:1"
     id="path888" /><path
     d="m 652.22161,-408.49361 h 9.456 c 0,0 -9.6,-30.24 -10.224,-32.256 -0.384,-1.296 -0.528,-1.344 -2.256,-1.344 h -10.368 c -1.728,0 -1.872,0.048 -2.256,1.344 -0.672,2.016 -10.272,32.256 -10.272,32.256 h 9.504 l 2.208,-7.632 h 12 z m -8.928,-26.88 h 1.392 l 3.408,12 h -8.208 z"
     style="font-size:48px;line-height:64.99999762%;text-align:end;text-anchor:end;fill:#000000;stroke:none;stroke-width:2.17499995;stroke-miterlimit:4;stroke-dasharray:none;stroke-opacity:1"
     id="path890" /><path
     d="m 664.6536,-408.49361 h 19.728 c 6.48,0 10.176,-4.128 10.176,-9.12 v -15.408 c 0,-4.992 -3.696,-9.072 -10.176,-9.072 h -19.728 z m 21.216,-10.848 c 0,2.784 -1.296,3.744 -3.792,3.744 h -8.736 v -19.392 h 8.736 c 2.496,0 3.792,0.912 3.792,3.696 z"
     style="font-size:48px;line-height:64.99999762%;text-align:end;text-anchor:end;fill:#000000;stroke:none;stroke-width:2.17499995;stroke-miterlimit:4;stroke-dasharray:none;stroke-opacity:1"
     id="path892" /><path
     d="m 721.05352,-408.49361 h 9.456 c 0,0 -9.6,-30.24 -10.224,-32.256 -0.384,-1.296 -0.528,-1.344 -2.256,-1.344 h -10.368 c -1.728,0 -1.872,0.048 -2.256,1.344 -0.672,2.016 -10.272,32.256 -10.272,32.256 h 9.504 l 2.208,-7.632 h 12 z m -8.928,-26.88 h 1.392 l 3.408,12 h -8.208 z"
     style="font-size:48px;line-height:64.99999762%;text-align:end;text-anchor:end;fill:#000000;stroke:none;stroke-width:2.17499995;stroke-miterlimit:4;stroke-dasharray:none;stroke-opacity:1"
     id="path894" /></g>
<g
   id="g1159"
   transform="translate(206.91227,160.33424)"><path
     inkscape:connector-curvature="0"
     id="path1145"
     style="fill:#c21b32;fill-opacity:1;fill-rule:nonzero;stroke:none;stroke-width:0.1"
     d="m 147.017,344.507 -1.276,-7.186 -0.686,-35.164 c 0,-1.612 -0.27,-3.263 -0.827,-5.047 -0.555,-1.778 -1.438,-3.547 -2.633,-5.277 -2.372,-3.407 -5.95,-6.584 -10.637,-9.455 -1.291,-0.79 -2.718,-1.584 -4.273,-2.381 -0.206,-0.104 -0.407,-0.198 -0.588,-0.285 l -0.604,-0.289 c -1.573,-0.761 -2.96,-1.39 -4.236,-1.918 -5.242,-2.191 -9.924,-3.551 -12.248,-4.165 l -0.772,-0.208 -0.769,0.208 c -2.425,0.646 -7.287,2.068 -12.6352,4.33 -1.3543,0.581 -2.5922,1.148 -3.7367,1.711 l -0.9395,0.447 -0.3183,0.155 c -1.3953,0.711 -2.7469,1.463 -4.1317,2.302 -4.9019,2.964 -8.6003,6.27 -10.9746,9.803 -1.1281,1.652 -1.9781,3.41 -2.5195,5.226 -0.5254,1.763 -0.7824,3.382 -0.7824,4.894 l -0.6328,34.352 -1.3516,7.964 -0.5043,2.976 2.9762,0.488 35.8674,5.886 0.488,0.081 0.485,-0.081 35.79,-5.88 3.002,-0.491 z m -38.774,18.378 -49.2227,-8.076 2.5395,-14.696 0.7191,-39.628 c 0,-1.961 0.3262,-4.004 0.9832,-6.238 0.7047,-2.326 1.7832,-4.565 3.2051,-6.638 2.9808,-4.447 7.566,-8.556 13.6234,-12.219 1.6535,-0.991 3.2778,-1.899 5.0449,-2.803 0.5094,-0.25 0.995,-0.479 1.4625,-0.697 1.3766,-0.675 2.845,-1.346 4.5004,-2.066 7.2938,-3.071 13.7276,-4.833 16.1606,-5.441 l 0.944,-0.24 0.948,0.234 c 2.347,0.592 8.572,2.275 15.687,5.251 1.569,0.647 3.235,1.404 5.127,2.319 0.206,0.106 0.418,0.199 0.624,0.301 0.237,0.112 0.48,0.222 0.773,0.373 1.895,0.964 3.642,1.944 5.191,2.898 5.786,3.534 10.227,7.491 13.195,11.759 1.505,2.169 2.636,4.425 3.356,6.723 0.699,2.273 1.041,4.373 1.041,6.358 l 0.787,40.423 2.527,14.023 -49.216,8.08" /><path
     inkscape:connector-curvature="0"
     id="path1147"
     style="fill:#c21b32;fill-opacity:1;fill-rule:nonzero;stroke:none;stroke-width:0.1"
     d="m 85.6113,318.171 -0.6664,2.983 11.1465,-6.89 c -0.9851,6.627 -0.5754,24.408 -0.5754,24.408 l 1.9707,-1.386 c 2.0082,-1.413 4.8493,-1.191 6.5093,0.509 l 11.443,11.725 -7.166,1.177 -35.6226,-5.848 1.3547,-7.971 0.4601,-24.856 6.7926,0.683 c 2.9426,0.296 4.9465,2.812 4.3535,5.466" /><path
     inkscape:connector-curvature="0"
     id="path1149"
     style="fill:#c21b32;fill-opacity:1;fill-rule:nonzero;stroke:none;stroke-width:0.1"
     d="m 104.072,303.17 c 0.54,11.167 4.1,19.689 4.1,19.689 -7.244,-14.197 -7.309,-27.076 -5.815,-35.966 -5.2078,-0.761 -8.6367,-3.026 -8.6367,-3.026 l 1.3621,4.125 c 0.3508,1.061 -0.1422,2.223 -1.2023,2.795 -6.2707,3.378 -14.0918,4.669 -17.6598,5.107 0.3348,-0.678 0.7227,-1.342 1.1649,-1.988 2.1265,-3.166 5.4875,-6.154 9.9816,-8.87 1.3219,-0.797 2.6059,-1.513 3.9328,-2.189 l 0.2531,-0.121 c 0.2875,-0.14 0.5938,-0.286 0.9086,-0.435 1.1485,-0.564 2.3379,-1.11 3.6422,-1.669 5.1035,-2.156 9.7645,-3.526 12.1275,-4.158 -1.848,4.187 -5.308,13.986 -4.159,26.706" /><path
     inkscape:connector-curvature="0"
     id="path1151"
     style="fill:#c21b32;fill-opacity:1;fill-rule:nonzero;stroke:none;stroke-width:0.1"
     d="m 123.717,338.141 5.261,0.899 c -6.294,-8.433 -12.714,-23.174 -12.714,-23.174 5.102,5.303 19.427,11.026 19.427,11.026 l -1.007,-4.73 c -0.322,-1.516 0.867,-2.986 2.563,-3.138 1.571,-0.14 3.275,-0.413 4.907,-0.731 l 0.377,19.325 1.285,7.241 -27.14,4.458 1.29,-7.458 c 0.43,-2.487 3.047,-4.179 5.751,-3.718" /><path
     inkscape:connector-curvature="0"
     id="path1153"
     style="fill:#c21b32;fill-opacity:1;fill-rule:nonzero;stroke:none;stroke-width:0.1"
     d="m 139.865,304.419 1.986,-1.692 0.149,7.623 c -0.87,-0.817 -1.667,-1.597 -2.329,-2.258 -1.052,-1.049 -0.964,-2.687 0.194,-3.673" /><path
     inkscape:connector-curvature="0"
     id="path1155"
     style="fill:#c21b32;fill-opacity:1;fill-rule:nonzero;stroke:none;stroke-width:0.1"
     d="m 78.5855,302.459 -4.0503,5.804 0.1109,-5.996 c 0,-1.255 0.2117,-2.573 0.6465,-4.033 0.1433,-0.48 0.316,-0.954 0.5109,-1.424 l 1.3406,0.632 c 2.0036,0.945 2.668,3.259 1.4414,5.017" /><path
     inkscape:connector-curvature="0"
     id="path1157"
     style="fill:#c21b32;fill-opacity:1;fill-rule:nonzero;stroke:none;stroke-width:0.1"
     d="m 116.122,290.765 0.763,-6.559 c -2.967,1.629 -5.842,2.456 -8.499,2.773 1.006,-3.116 2.397,-6.221 4.276,-9.214 2.125,0.684 4.662,1.581 7.355,2.71 1.226,0.505 2.558,1.108 4.074,1.843 0.203,0.102 0.417,0.2 0.63,0.302 0.18,0.084 0.351,0.166 0.527,0.254 1.454,0.744 2.811,1.502 4.031,2.249 4.306,2.635 7.56,5.51 9.679,8.549 1.003,1.45 1.742,2.933 2.199,4.397 0.316,1.011 0.518,1.958 0.615,2.87 -13.193,-2.4 -21.017,-5.902 -24.19,-7.561 -1.011,-0.529 -1.584,-1.547 -1.46,-2.613" /></g><g
   aria-label="MATERIALS CALCULATOR"
   transform="scale(1,-1)"
   style="font-style:normal;font-variant:normal;font-weight:bold;font-stretch:normal;font-size:36px;line-height:69.99999881%;font-family:'RBNo3.1';-inkscape-font-specification:'RBNo3.1 weight=453';text-align:end;writing-mode:lr-tb;text-anchor:end;fill:#c21b32;fill-opacity:1;stroke:none;stroke-width:2.17500019;stroke-linejoin:round;stroke-miterlimit:4;stroke-dasharray:none;stroke-opacity:1"
   id="text852"><path
     d="m 261.85668,-379.79563 h -0.288 l -5.652,-14.976 c 0,0 -0.072,-0.324 -0.432,-0.324 h -8.244 v 25.2 h 6.516 v -13.68 h 0.36 l 4.428,13.212 c 0,0 0.108,0.468 0.576,0.468 h 5.22 c 0.432,0 0.54,-0.468 0.54,-0.468 l 4.428,-13.212 h 0.36 v 13.68 h 6.516 v -25.2 h -8.244 c -0.36,0 -0.432,0.324 -0.432,0.324 z"
     style="fill:#c21b32;fill-opacity:1;stroke-width:2.17500019"
     id="path854" /><path
     d="m 297.85666,-369.89563 h 7.092 c 0,0 -7.2,-22.68 -7.668,-24.192 -0.288,-0.972 -0.396,-1.008 -1.692,-1.008 h -7.776 c -1.296,0 -1.404,0.036 -1.692,1.008 -0.504,1.512 -7.704,24.192 -7.704,24.192 h 7.128 l 1.656,-5.724 h 9 z m -6.696,-20.16 h 1.044 l 2.556,9 h -6.156 z"
     style="fill:#c21b32;fill-opacity:1;stroke-width:2.17500019"
     id="path856" /><path
     d="m 325.00062,-395.09563 h -22.32 v 5.4 h 7.92 v 19.8 h 6.516 v -19.8 h 7.884 z"
     style="fill:#c21b32;fill-opacity:1;stroke-width:2.17500019"
     id="path858" /><path
     d="m 327.80858,-369.89563 h 19.08 v -5.652 h -12.564 v -4.356 h 10.692 v -5.472 h -10.692 v -4.392 h 12.6 v -5.328 h -19.116 z"
     style="fill:#c21b32;fill-opacity:1;stroke-width:2.17500019"
     id="path860" /><path
     d="m 357.25655,-377.95963 h 5.292 l 3.744,8.064 h 6.84 l -4.104,-8.928 c 2.412,-1.044 3.636,-3.168 3.636,-5.868 v -3.708 c 0,-3.744 -2.484,-6.696 -7.344,-6.696 h -14.58 v 25.2 h 6.516 z m 6.408,-5.148 h -6.408 v -6.66 h 6.408 c 1.872,0 2.592,0.9 2.592,2.52 v 1.512 c 0,1.62 -0.72,2.628 -2.592,2.628 z"
     style="fill:#c21b32;fill-opacity:1;stroke-width:2.17500019"
     id="path862" /><path
     d="m 382.99653,-395.09563 h -6.516 v 25.2 h 6.516 z"
     style="fill:#c21b32;fill-opacity:1;stroke-width:2.17500019"
     id="path864" /><path
     d="m 404.74051,-369.89563 h 7.092 c 0,0 -7.2,-22.68 -7.668,-24.192 -0.288,-0.972 -0.396,-1.008 -1.692,-1.008 h -7.776 c -1.296,0 -1.404,0.036 -1.692,1.008 -0.504,1.512 -7.704,24.192 -7.704,24.192 h 7.128 l 1.656,-5.724 h 9 z m -6.696,-20.16 h 1.044 l 2.556,9 h -6.156 z"
     style="fill:#c21b32;fill-opacity:1;stroke-width:2.17500019"
     id="path866" /><path
     d="m 414.0645,-369.89563 h 18.54 v -5.508 h -12.024 v -19.692 h -6.516 z"
     style="fill:#c21b32;fill-opacity:1;stroke-width:2.17500019"
     id="path869" /><path
     d="m 453.52047,-394.73563 c 0,0 -6.372,-0.576 -11.232,-0.576 -6.372,0 -8.532,1.98 -8.532,6.48 v 2.304 c 0,4.5 2.232,4.824 6.948,5.652 0.576,0.108 6.048,1.08 6.912,1.26 0.828,0.144 0.936,0.648 0.936,1.188 v 1.08 c 0,1.512 -0.684,1.872 -2.7,1.872 h -11.844 l -0.072,5.184 c 0,0 7.884,0.576 12.744,0.576 6.372,0.036 8.388,-2.088 8.388,-6.552 v -3.024 c 0,-3.528 -0.864,-5.184 -5.184,-6.012 -0.828,-0.144 -8.064,-1.476 -8.064,-1.476 -0.972,-0.18 -1.368,-0.36 -1.368,-1.044 v -0.468 c 0,-1.188 0.252,-1.26 1.584,-1.26 h 11.412 z"
     style="fill:#c21b32;fill-opacity:1;stroke-width:2.17500019"
     id="path871" /><path
     d="m 485.09238,-394.91563 c 0,0 -6.264,-0.396 -12.492,-0.396 -4.86,0 -7.272,3.096 -7.272,6.84 v 11.772 c 0,3.744 2.412,7.02 7.272,7.02 5.868,0 12.492,-0.504 12.492,-0.504 l -0.072,-5.184 h -10.332 c -1.872,0 -2.664,-1.008 -2.664,-2.592 v -9.252 c 0,-1.62 0.792,-2.448 2.664,-2.448 h 10.332 z"
     style="fill:#c21b32;fill-opacity:1;stroke-width:2.17500019"
     id="path873" /><path
     d="m 505.54028,-369.89563 h 7.092 c 0,0 -7.2,-22.68 -7.668,-24.192 -0.288,-0.972 -0.396,-1.008 -1.692,-1.008 h -7.776 c -1.296,0 -1.404,0.036 -1.692,1.008 -0.504,1.512 -7.704,24.192 -7.704,24.192 h 7.128 l 1.656,-5.724 h 9 z m -6.696,-20.16 h 1.044 l 2.556,9 h -6.156 z"
     style="fill:#c21b32;fill-opacity:1;stroke-width:2.17500019"
     id="path875" /><path
     d="m 514.86428,-369.89563 h 18.54 v -5.508 h -12.024 v -19.692 h -6.516 z"
     style="fill:#c21b32;fill-opacity:1;stroke-width:2.17500019"
     id="path877" /><path
     d="m 555.58017,-394.91563 c 0,0 -6.264,-0.396 -12.492,-0.396 -4.86,0 -7.272,3.096 -7.272,6.84 v 11.772 c 0,3.744 2.412,7.02 7.272,7.02 5.868,0 12.492,-0.504 12.492,-0.504 l -0.072,-5.184 h -10.332 c -1.872,0 -2.664,-1.008 -2.664,-2.592 v -9.252 c 0,-1.62 0.792,-2.448 2.664,-2.448 h 10.332 z"
     style="fill:#c21b32;fill-opacity:1;stroke-width:2.17500019"
     id="path879" /><path
     d="m 565.08411,-377.74363 v -17.352 h -6.516 v 18.504 c 0,3.744 2.52,6.732 7.38,6.732 h 7.668 c 4.86,0 7.344,-2.988 7.344,-6.732 v -18.504 h -6.516 v 17.352 c 0,1.62 -0.72,2.52 -2.592,2.52 h -4.176 c -1.872,0 -2.592,-0.9 -2.592,-2.52 z"
     style="fill:#c21b32;fill-opacity:1;stroke-width:2.17500019"
     id="path881" /><path
     d="m 584.74007,-369.89563 h 18.54 v -5.508 h -12.024 v -19.692 h -6.516 z"
     style="fill:#c21b32;fill-opacity:1;stroke-width:2.17500019"
     id="path883" /><path
     d="m 623.26004,-369.89563 h 7.092 c 0,0 -7.2,-22.68 -7.668,-24.192 -0.288,-0.972 -0.396,-1.008 -1.692,-1.008 h -7.776 c -1.296,0 -1.404,0.036 -1.692,1.008 -0.504,1.512 -7.704,24.192 -7.704,24.192 h 7.128 l 1.656,-5.724 h 9 z m -6.696,-20.16 h 1.044 l 2.556,9 h -6.156 z"
     style="fill:#c21b32;fill-opacity:1;stroke-width:2.17500019"
     id="path885" /><path
     d="m 650.404,-395.09563 h -22.32 v 5.4 h 7.92 v 19.8 h 6.516 v -19.8 h 7.884 z"
     style="fill:#c21b32;fill-opacity:1;stroke-width:2.17500019"
     id="path887" /><path
     d="m 659.47593,-369.85963 h 8.136 c 4.86,0 7.344,-2.988 7.344,-6.732 v -11.808 c 0,-3.744 -2.484,-6.732 -7.344,-6.732 h -8.136 c -4.824,0 -7.344,2.988 -7.344,6.732 v 11.808 c 0,3.744 2.52,6.732 7.344,6.732 z m 1.8,-19.908 h 4.536 c 1.872,0 2.592,0.756 2.592,2.34 v 9.612 c 0,1.584 -0.72,2.52 -2.592,2.52 h -4.536 c -1.872,0 -2.592,-0.936 -2.592,-2.52 v -9.612 c 0,-1.584 0.72,-2.34 2.592,-2.34 z"
     style="fill:#c21b32;fill-opacity:1;stroke-width:2.17500019"
     id="path889" /><path
     d="m 685.21588,-377.95963 h 5.292 l 3.744,8.064 h 6.84 l -4.104,-8.928 c 2.412,-1.044 3.636,-3.168 3.636,-5.868 v -3.708 c 0,-3.744 -2.484,-6.696 -7.344,-6.696 h -14.58 v 25.2 h 6.516 z m 6.408,-5.148 h -6.408 v -6.66 h 6.408 c 1.872,0 2.592,0.9 2.592,2.52 v 1.512 c 0,1.62 -0.72,2.628 -2.592,2.628 z"
     style="fill:#c21b32;fill-opacity:1;stroke-width:2.17500019"
     id="path891" /></g></g></svg>